<svg width="335" height="373" viewBox="0 0 335 373" fill="none" xmlns="http://www.w3.org/2000/svg">
<g clip-path="url(#clip0_0_48)">
<path d="M105.367 31.384C108.055 31.384 110.263 30.296 111.959 28.344L109.975 26.008C108.791 27.288 107.351 28.152 105.495 28.152C101.975 28.152 99.7354 25.272 99.7354 20.504C99.7354 15.8 102.167 12.92 105.591 12.92C107.223 12.92 108.471 13.656 109.559 14.744L111.543 12.344C110.231 10.936 108.119 9.688 105.495 9.688C100.215 9.688 95.9274 13.752 95.9274 20.6C95.9274 27.544 100.087 31.384 105.367 31.384ZM121.565 31.384C125.501 31.384 129.053 28.376 129.053 23.16C129.053 17.912 125.501 14.904 121.565 14.904C117.661 14.904 114.109 17.912 114.109 23.16C114.109 28.376 117.661 31.384 121.565 31.384ZM121.565 28.376C119.261 28.376 117.885 26.296 117.885 23.16C117.885 19.992 119.261 17.912 121.565 17.912C123.869 17.912 125.277 19.992 125.277 23.16C125.277 26.296 123.869 28.376 121.565 28.376ZM132.695 31H136.375V20.024C137.687 18.744 138.583 18.072 139.959 18.072C141.687 18.072 142.423 19.032 142.423 21.624V31H146.103V21.144C146.103 17.176 144.631 14.904 141.271 14.904C139.127 14.904 137.527 16.024 136.119 17.4H135.991L135.735 15.288H132.695V31ZM156.138 31.384C157.386 31.384 158.474 31.096 159.338 30.808L158.698 28.088C158.25 28.28 157.61 28.44 157.066 28.44C155.562 28.44 154.858 27.544 154.858 25.688V18.2H158.858V15.288H154.858V11H151.786L151.338 15.288L148.906 15.448V18.2H151.146V25.688C151.146 29.08 152.49 31.384 156.138 31.384ZM165.285 31.384C167.141 31.384 168.741 30.456 170.149 29.272H170.277L170.533 31H173.573V21.688C173.573 17.304 171.621 14.904 167.717 14.904C165.221 14.904 162.981 15.864 161.253 16.952L162.597 19.416C164.005 18.584 165.477 17.88 167.013 17.88C169.157 17.88 169.829 19.288 169.893 20.952C163.429 21.656 160.645 23.416 160.645 26.776C160.645 29.528 162.533 31.384 165.285 31.384ZM166.469 28.504C165.157 28.504 164.197 27.896 164.197 26.488C164.197 24.92 165.605 23.8 169.893 23.256V26.776C168.709 27.864 167.749 28.504 166.469 28.504ZM184.537 31.384C186.329 31.384 188.185 30.744 189.657 29.464L188.153 27.032C187.257 27.768 186.137 28.376 184.921 28.376C182.457 28.376 180.729 26.296 180.729 23.16C180.729 19.992 182.489 17.912 185.017 17.912C186.009 17.912 186.809 18.328 187.641 19.064L189.433 16.664C188.281 15.672 186.841 14.904 184.825 14.904C180.633 14.904 176.953 17.912 176.953 23.16C176.953 28.376 180.249 31.384 184.537 31.384ZM197.981 31.384C199.229 31.384 200.317 31.096 201.181 30.808L200.541 28.088C200.093 28.28 199.453 28.44 198.909 28.44C197.405 28.44 196.701 27.544 196.701 25.688V18.2H200.701V15.288H196.701V11H193.629L193.181 15.288L190.749 15.448V18.2H192.989V25.688C192.989 29.08 194.333 31.384 197.981 31.384ZM215.086 31.384C217.23 31.384 218.766 30.328 220.142 28.696H220.238L220.526 31H223.534V15.288H219.854V26.04C218.67 27.576 217.742 28.216 216.366 28.216C214.67 28.216 213.934 27.256 213.934 24.664V15.288H210.254V25.144C210.254 29.112 211.726 31.384 215.086 31.384ZM232.579 31.384C236.547 31.384 238.691 29.208 238.691 26.52C238.691 23.576 236.323 22.552 234.179 21.752C232.483 21.144 230.915 20.664 230.915 19.416C230.915 18.424 231.651 17.688 233.219 17.688C234.467 17.688 235.587 18.232 236.675 19.032L238.371 16.792C237.091 15.8 235.331 14.904 233.155 14.904C229.635 14.904 227.427 16.856 227.427 19.608C227.427 22.232 229.763 23.416 231.843 24.184C233.507 24.824 235.203 25.4 235.203 26.712C235.203 27.8 234.403 28.6 232.707 28.6C231.107 28.6 229.763 27.928 228.355 26.84L226.627 29.208C228.163 30.456 230.435 31.384 232.579 31.384Z" fill="#071629"/>
<g clip-path="url(#clip1_0_48)">
<path d="M1.162 110H2.716V105.996C2.716 104.974 2.576 103.868 2.506 102.902H2.562L3.5 104.848L6.356 110H8.022V100.844H6.468V104.82C6.468 105.842 6.608 107.004 6.678 107.942H6.622L5.684 105.996L2.828 100.844H1.162V110ZM11.8755 110.168C12.6875 110.168 13.3875 109.762 14.0035 109.244H14.0595L14.1715 110H15.5015V105.926C15.5015 104.008 14.6475 102.958 12.9395 102.958C11.8475 102.958 10.8675 103.378 10.1115 103.854L10.6995 104.932C11.3155 104.568 11.9595 104.26 12.6315 104.26C13.5695 104.26 13.8635 104.876 13.8915 105.604C11.0635 105.912 9.8455 106.682 9.8455 108.152C9.8455 109.356 10.6715 110.168 11.8755 110.168ZM12.3935 108.908C11.8195 108.908 11.3995 108.642 11.3995 108.026C11.3995 107.34 12.0155 106.85 13.8915 106.612V108.152C13.3735 108.628 12.9535 108.908 12.3935 108.908ZM17.4283 110H19.0383V105.198C19.5703 104.624 20.0603 104.344 20.4803 104.344C21.2083 104.344 21.5443 104.764 21.5443 105.898V110H23.1543V105.198C23.6863 104.624 24.1623 104.344 24.5963 104.344C25.3103 104.344 25.6463 104.764 25.6463 105.898V110H27.2703V105.688C27.2703 103.952 26.5983 102.958 25.1423 102.958C24.2743 102.958 23.5883 103.49 22.9303 104.19C22.6083 103.42 22.0343 102.958 21.0263 102.958C20.1723 102.958 19.5003 103.448 18.9263 104.064H18.8703L18.7583 103.126H17.4283V110ZM32.1671 110.168C33.0351 110.168 33.8611 109.86 34.5191 109.426L33.9731 108.418C33.4691 108.74 32.9651 108.922 32.3771 108.922C31.2711 108.922 30.4871 108.222 30.3471 107.004H34.7151C34.7571 106.836 34.7851 106.528 34.7851 106.22C34.7851 104.302 33.8051 102.958 31.9431 102.958C30.3331 102.958 28.7791 104.33 28.7791 106.57C28.7791 108.838 30.2631 110.168 32.1671 110.168ZM30.3331 105.912C30.4731 104.806 31.1731 104.204 31.9851 104.204C32.9231 104.204 33.3851 104.848 33.3851 105.912H30.3331Z" fill="#071629"/>
<rect opacity="0.174526" y="124" width="335" height="1" fill="#071629"/>
</g>
<g clip-path="url(#clip2_0_48)">
<path d="M1.162 184H6.818V182.628H2.786V179.926H6.076V178.554H2.786V176.216H6.678V174.844H1.162V184ZM8.5552 184H10.1652V179.198C10.6972 178.624 11.1872 178.344 11.6072 178.344C12.3352 178.344 12.6712 178.764 12.6712 179.898V184H14.2812V179.198C14.8132 178.624 15.2892 178.344 15.7232 178.344C16.4372 178.344 16.7732 178.764 16.7732 179.898V184H18.3972V179.688C18.3972 177.952 17.7252 176.958 16.2692 176.958C15.4012 176.958 14.7152 177.49 14.0572 178.19C13.7352 177.42 13.1612 176.958 12.1532 176.958C11.2992 176.958 10.6272 177.448 10.0532 178.064H9.9972L9.8852 177.126H8.5552V184ZM22.02 184.168C22.832 184.168 23.532 183.762 24.148 183.244H24.204L24.316 184H25.646V179.926C25.646 178.008 24.792 176.958 23.084 176.958C21.992 176.958 21.012 177.378 20.256 177.854L20.844 178.932C21.46 178.568 22.104 178.26 22.776 178.26C23.714 178.26 24.008 178.876 24.036 179.604C21.208 179.912 19.99 180.682 19.99 182.152C19.99 183.356 20.816 184.168 22.02 184.168ZM22.538 182.908C21.964 182.908 21.544 182.642 21.544 182.026C21.544 181.34 22.16 180.85 24.036 180.612V182.152C23.518 182.628 23.098 182.908 22.538 182.908ZM27.5728 184H29.1828V177.126H27.5728V184ZM28.3848 175.922C28.9588 175.922 29.3788 175.544 29.3788 175.012C29.3788 174.466 28.9588 174.088 28.3848 174.088C27.8108 174.088 27.3908 174.466 27.3908 175.012C27.3908 175.544 27.8108 175.922 28.3848 175.922ZM32.8048 184.168C33.1828 184.168 33.4628 184.112 33.6588 184.028L33.4488 182.824C33.3228 182.852 33.2668 182.852 33.1968 182.852C33.0288 182.852 32.8468 182.712 32.8468 182.32V174.116H31.2368V182.236C31.2368 183.426 31.6568 184.168 32.8048 184.168Z" fill="#071629"/>
<rect opacity="0.174526" y="198" width="335" height="1" fill="#071629"/>
</g>
<g clip-path="url(#clip3_0_48)">
<path d="M2.688 258H4.312V254.598L7.07 248.844H5.376L4.382 251.182C4.116 251.868 3.836 252.498 3.542 253.198H3.486C3.192 252.498 2.94 251.868 2.674 251.182L1.68 248.844H-0.056L2.688 254.598V258ZM10.1798 258.168C11.9018 258.168 13.4558 256.852 13.4558 254.57C13.4558 252.274 11.9018 250.958 10.1798 250.958C8.47175 250.958 6.91775 252.274 6.91775 254.57C6.91775 256.852 8.47175 258.168 10.1798 258.168ZM10.1798 256.852C9.17175 256.852 8.56975 255.942 8.56975 254.57C8.56975 253.184 9.17175 252.274 10.1798 252.274C11.1878 252.274 11.8038 253.184 11.8038 254.57C11.8038 255.942 11.1878 256.852 10.1798 256.852ZM17.0933 258.168C18.0313 258.168 18.7033 257.706 19.3053 256.992H19.3473L19.4733 258H20.7893V251.126H19.1793V255.83C18.6613 256.502 18.2553 256.782 17.6533 256.782C16.9113 256.782 16.5893 256.362 16.5893 255.228V251.126H14.9793V255.438C14.9793 257.174 15.6233 258.168 17.0933 258.168ZM22.8286 258H24.4386V253.8C24.8586 252.764 25.5166 252.386 26.0626 252.386C26.3566 252.386 26.5386 252.428 26.7766 252.498L27.0566 251.098C26.8466 251 26.6226 250.958 26.2726 250.958C25.5446 250.958 24.8166 251.448 24.3266 252.344H24.2706L24.1586 251.126H22.8286V258ZM30.854 258H32.464V253.198C32.996 252.624 33.486 252.344 33.906 252.344C34.634 252.344 34.97 252.764 34.97 253.898V258H36.58V253.198C37.112 252.624 37.588 252.344 38.022 252.344C38.736 252.344 39.072 252.764 39.072 253.898V258H40.696V253.688C40.696 251.952 40.024 250.958 38.568 250.958C37.7 250.958 37.014 251.49 36.356 252.19C36.034 251.42 35.46 250.958 34.452 250.958C33.598 250.958 32.926 251.448 32.352 252.064H32.296L32.184 251.126H30.854V258ZM45.5929 258.168C46.4609 258.168 47.2869 257.86 47.9449 257.426L47.3989 256.418C46.8949 256.74 46.3909 256.922 45.8029 256.922C44.6969 256.922 43.9129 256.222 43.7729 255.004H48.1409C48.1829 254.836 48.2109 254.528 48.2109 254.22C48.2109 252.302 47.2309 250.958 45.3689 250.958C43.7589 250.958 42.2049 252.33 42.2049 254.57C42.2049 256.838 43.6889 258.168 45.5929 258.168ZM43.7589 253.912C43.8989 252.806 44.5989 252.204 45.4109 252.204C46.3489 252.204 46.8109 252.848 46.8109 253.912H43.7589ZM51.6666 258.168C53.4026 258.168 54.3406 257.216 54.3406 256.04C54.3406 254.752 53.3046 254.304 52.3666 253.954C51.6246 253.688 50.9386 253.478 50.9386 252.932C50.9386 252.498 51.2606 252.176 51.9466 252.176C52.4926 252.176 52.9826 252.414 53.4586 252.764L54.2006 251.784C53.6406 251.35 52.8706 250.958 51.9186 250.958C50.3786 250.958 49.4126 251.812 49.4126 253.016C49.4126 254.164 50.4346 254.682 51.3446 255.018C52.0726 255.298 52.8146 255.55 52.8146 256.124C52.8146 256.6 52.4646 256.95 51.7226 256.95C51.0226 256.95 50.4346 256.656 49.8186 256.18L49.0626 257.216C49.7346 257.762 50.7286 258.168 51.6666 258.168ZM57.6959 258.168C59.4319 258.168 60.3699 257.216 60.3699 256.04C60.3699 254.752 59.3339 254.304 58.3959 253.954C57.6539 253.688 56.9679 253.478 56.9679 252.932C56.9679 252.498 57.2899 252.176 57.9759 252.176C58.5219 252.176 59.0119 252.414 59.4879 252.764L60.2299 251.784C59.6699 251.35 58.8999 250.958 57.9479 250.958C56.4079 250.958 55.4419 251.812 55.4419 253.016C55.4419 254.164 56.4639 254.682 57.3739 255.018C58.1019 255.298 58.8439 255.55 58.8439 256.124C58.8439 256.6 58.4939 256.95 57.7519 256.95C57.0519 256.95 56.4639 256.656 55.8479 256.18L55.0919 257.216C55.7639 257.762 56.7579 258.168 57.6959 258.168ZM63.4732 258.168C64.2852 258.168 64.9852 257.762 65.6012 257.244H65.6572L65.7692 258H67.0992V253.926C67.0992 252.008 66.2452 250.958 64.5372 250.958C63.4452 250.958 62.4652 251.378 61.7092 251.854L62.2972 252.932C62.9132 252.568 63.5572 252.26 64.2292 252.26C65.1672 252.26 65.4612 252.876 65.4892 253.604C62.6612 253.912 61.4432 254.682 61.4432 256.152C61.4432 257.356 62.2692 258.168 63.4732 258.168ZM63.9912 256.908C63.4172 256.908 62.9972 256.642 62.9972 256.026C62.9972 255.34 63.6132 254.85 65.4892 254.612V256.152C64.9712 256.628 64.5512 256.908 63.9912 256.908ZM71.4199 261.038C73.6599 261.038 75.0879 259.974 75.0879 258.616C75.0879 257.426 74.2199 256.922 72.5679 256.922H71.3499C70.5099 256.922 70.2299 256.684 70.2299 256.292C70.2299 255.984 70.3559 255.816 70.5659 255.634C70.8739 255.76 71.2099 255.816 71.5039 255.816C72.9599 255.816 74.1079 255.004 74.1079 253.478C74.1079 253.002 73.9399 252.582 73.7159 252.316H74.9759V251.126H72.5119C72.2319 251.028 71.8819 250.958 71.5039 250.958C70.0619 250.958 68.7879 251.84 68.7879 253.422C68.7879 254.234 69.2219 254.892 69.6839 255.242V255.298C69.2919 255.578 68.9279 256.04 68.9279 256.572C68.9279 257.132 69.1939 257.496 69.5439 257.72V257.776C68.9139 258.168 68.5639 258.672 68.5639 259.246C68.5639 260.45 69.7819 261.038 71.4199 261.038ZM71.5039 254.808C70.8319 254.808 70.2999 254.304 70.2999 253.422C70.2999 252.554 70.8319 252.064 71.5039 252.064C72.1759 252.064 72.6939 252.568 72.6939 253.422C72.6939 254.304 72.1619 254.808 71.5039 254.808ZM71.6719 259.988C70.5799 259.988 69.9079 259.624 69.9079 259.008C69.9079 258.686 70.0759 258.378 70.4399 258.098C70.7059 258.168 70.9999 258.196 71.3779 258.196H72.3159C73.0999 258.196 73.5339 258.35 73.5339 258.882C73.5339 259.47 72.7779 259.988 71.6719 259.988ZM79.0206 258.168C79.8886 258.168 80.7146 257.86 81.3726 257.426L80.8266 256.418C80.3226 256.74 79.8186 256.922 79.2306 256.922C78.1246 256.922 77.3406 256.222 77.2006 255.004H81.5686C81.6106 254.836 81.6386 254.528 81.6386 254.22C81.6386 252.302 80.6586 250.958 78.7966 250.958C77.1866 250.958 75.6326 252.33 75.6326 254.57C75.6326 256.838 77.1166 258.168 79.0206 258.168ZM77.1866 253.912C77.3266 252.806 78.0266 252.204 78.8386 252.204C79.7766 252.204 80.2386 252.848 80.2386 253.912H77.1866Z" fill="#071629"/>
<rect opacity="0.174526" y="272" width="335" height="1" fill="#071629"/>
</g>
<g clip-path="url(#clip4_0_48)">
<rect x="86" y="329" width="162" height="44" rx="22" fill="#FF6565"/>
<path d="M121.902 356.168C121.323 356.168 120.777 356.07 120.264 355.874C119.75 355.669 119.298 355.37 118.906 354.978C118.523 354.586 118.22 354.101 117.996 353.522C117.772 352.934 117.66 352.257 117.66 351.492C117.66 350.736 117.776 350.064 118.01 349.476C118.243 348.879 118.556 348.375 118.948 347.964C119.34 347.553 119.797 347.241 120.32 347.026C120.842 346.811 121.393 346.704 121.972 346.704C122.56 346.704 123.087 346.825 123.554 347.068C124.02 347.301 124.408 347.577 124.716 347.894L123.624 349.21C123.39 348.995 123.143 348.823 122.882 348.692C122.63 348.552 122.34 348.482 122.014 348.482C121.706 348.482 121.412 348.552 121.132 348.692C120.861 348.823 120.623 349.014 120.418 349.266C120.222 349.518 120.063 349.826 119.942 350.19C119.83 350.554 119.774 350.965 119.774 351.422C119.774 352.365 119.974 353.097 120.376 353.62C120.777 354.133 121.314 354.39 121.986 354.39C122.359 354.39 122.69 354.311 122.98 354.152C123.278 353.984 123.54 353.779 123.764 353.536L124.856 354.824C124.09 355.72 123.106 356.168 121.902 356.168ZM128.384 351.38L128.16 352.22H130.106L129.896 351.38C129.765 350.923 129.639 350.437 129.518 349.924C129.397 349.411 129.275 348.916 129.154 348.44H129.098C128.986 348.925 128.869 349.425 128.748 349.938C128.636 350.442 128.515 350.923 128.384 351.38ZM125.08 356L127.936 346.872H130.414L133.27 356H131.086L130.526 353.83H127.74L127.18 356H125.08ZM134.267 356V346.872H136.325V354.264H139.937V356H134.267ZM141.514 356V346.872H143.572V354.264H147.184V356H141.514ZM153.34 356V348.608H150.834V346.872H157.918V348.608H155.412V356H153.34ZM162.655 356.168C162.039 356.168 161.475 356.061 160.961 355.846C160.457 355.622 160.023 355.305 159.659 354.894C159.295 354.483 159.011 353.984 158.805 353.396C158.609 352.808 158.511 352.141 158.511 351.394C158.511 350.647 158.609 349.985 158.805 349.406C159.011 348.818 159.295 348.328 159.659 347.936C160.023 347.535 160.457 347.231 160.961 347.026C161.475 346.811 162.039 346.704 162.655 346.704C163.271 346.704 163.831 346.811 164.335 347.026C164.849 347.231 165.287 347.535 165.651 347.936C166.015 348.337 166.295 348.832 166.491 349.42C166.697 349.999 166.799 350.657 166.799 351.394C166.799 352.141 166.697 352.808 166.491 353.396C166.295 353.984 166.015 354.483 165.651 354.894C165.287 355.305 164.849 355.622 164.335 355.846C163.831 356.061 163.271 356.168 162.655 356.168ZM162.655 354.39C163.281 354.39 163.775 354.124 164.139 353.592C164.503 353.051 164.685 352.318 164.685 351.394C164.685 350.479 164.503 349.765 164.139 349.252C163.775 348.739 163.281 348.482 162.655 348.482C162.03 348.482 161.535 348.739 161.171 349.252C160.807 349.765 160.625 350.479 160.625 351.394C160.625 352.318 160.807 353.051 161.171 353.592C161.535 354.124 162.03 354.39 162.655 354.39ZM173.46 351.38L173.236 352.22H175.182L174.972 351.38C174.842 350.923 174.716 350.437 174.594 349.924C174.473 349.411 174.352 348.916 174.23 348.44H174.174C174.062 348.925 173.946 349.425 173.824 349.938C173.712 350.442 173.591 350.923 173.46 351.38ZM170.156 356L173.012 346.872H175.49L178.346 356H176.162L175.602 353.83H172.816L172.256 356H170.156ZM183.015 356.168C182.436 356.168 181.89 356.07 181.377 355.874C180.864 355.669 180.411 355.37 180.019 354.978C179.636 354.586 179.333 354.101 179.109 353.522C178.885 352.934 178.773 352.257 178.773 351.492C178.773 350.736 178.89 350.064 179.123 349.476C179.356 348.879 179.669 348.375 180.061 347.964C180.453 347.553 180.91 347.241 181.433 347.026C181.956 346.811 182.506 346.704 183.085 346.704C183.673 346.704 184.2 346.825 184.667 347.068C185.134 347.301 185.521 347.577 185.829 347.894L184.737 349.21C184.504 348.995 184.256 348.823 183.995 348.692C183.743 348.552 183.454 348.482 183.127 348.482C182.819 348.482 182.525 348.552 182.245 348.692C181.974 348.823 181.736 349.014 181.531 349.266C181.335 349.518 181.176 349.826 181.055 350.19C180.943 350.554 180.887 350.965 180.887 351.422C180.887 352.365 181.088 353.097 181.489 353.62C181.89 354.133 182.427 354.39 183.099 354.39C183.472 354.39 183.804 354.311 184.093 354.152C184.392 353.984 184.653 353.779 184.877 353.536L185.969 354.824C185.204 355.72 184.219 356.168 183.015 356.168ZM188.969 356V348.608H186.463V346.872H193.547V348.608H191.041V356H188.969ZM194.971 356V346.872H197.029V356H194.971ZM202.892 356.168C202.276 356.168 201.711 356.061 201.198 355.846C200.694 355.622 200.26 355.305 199.896 354.894C199.532 354.483 199.247 353.984 199.042 353.396C198.846 352.808 198.748 352.141 198.748 351.394C198.748 350.647 198.846 349.985 199.042 349.406C199.247 348.818 199.532 348.328 199.896 347.936C200.26 347.535 200.694 347.231 201.198 347.026C201.711 346.811 202.276 346.704 202.892 346.704C203.508 346.704 204.068 346.811 204.572 347.026C205.085 347.231 205.524 347.535 205.888 347.936C206.252 348.337 206.532 348.832 206.728 349.42C206.933 349.999 207.036 350.657 207.036 351.394C207.036 352.141 206.933 352.808 206.728 353.396C206.532 353.984 206.252 354.483 205.888 354.894C205.524 355.305 205.085 355.622 204.572 355.846C204.068 356.061 203.508 356.168 202.892 356.168ZM202.892 354.39C203.517 354.39 204.012 354.124 204.376 353.592C204.74 353.051 204.922 352.318 204.922 351.394C204.922 350.479 204.74 349.765 204.376 349.252C204.012 348.739 203.517 348.482 202.892 348.482C202.266 348.482 201.772 348.739 201.408 349.252C201.044 349.765 200.862 350.479 200.862 351.394C200.862 352.318 201.044 353.051 201.408 353.592C201.772 354.124 202.266 354.39 202.892 354.39ZM208.752 356V346.872H210.866L213.246 351.408L214.142 353.424H214.198C214.151 352.939 214.095 352.397 214.03 351.8C213.974 351.203 213.946 350.633 213.946 350.092V346.872H215.906V356H213.792L211.412 351.45L210.516 349.462H210.46C210.506 349.966 210.558 350.507 210.614 351.086C210.679 351.665 210.712 352.225 210.712 352.766V356H208.752Z" fill="white"/>
</g>
</g>
<defs>
<clipPath id="clip0_0_48">
<rect width="335" height="373" fill="white"/>
</clipPath>
<clipPath id="clip1_0_48">
<rect width="335" height="29" fill="white" transform="translate(0 96)"/>
</clipPath>
<clipPath id="clip2_0_48">
<rect width="335" height="29" fill="white" transform="translate(0 170)"/>
</clipPath>
<clipPath id="clip3_0_48">
<rect width="335" height="29" fill="white" transform="translate(0 244)"/>
</clipPath>
<clipPath id="clip4_0_48">
<rect width="162" height="44" fill="white" transform="translate(86 329)"/>
</clipPath>
</defs>
</svg>
